<svg width="24" height="24" viewBox="0 0 24 24" fill="none" xmlns="http://www.w3.org/2000/svg">
<path fill-rule="evenodd" clip-rule="evenodd" d="M12 22C17.5228 22 22 17.5228 22 12C22 6.47715 17.5228 2 12 2C6.47715 2 2 6.47715 2 12C2 17.5228 6.47715 22 12 22ZM12 24C18.6274 24 24 18.6274 24 12C24 5.37258 18.6274 0 12 0C5.37258 0 0 5.37258 0 12C0 18.6274 5.37258 24 12 24Z" fill="#082854"/>
<path fill-rule="evenodd" clip-rule="evenodd" d="M7.14204 7.05523C7.63907 6.5582 8.44492 6.5582 8.94195 7.05523L17.0415 15.1548C17.5386 15.6518 17.5386 16.4577 17.0415 16.9547C16.5445 17.4518 15.7387 17.4518 15.2416 16.9547L7.14204 8.85514C6.64501 8.3581 6.64501 7.55226 7.14204 7.05523Z" fill="#082854"/>
<path fill-rule="evenodd" clip-rule="evenodd" d="M7.1148 17.0153C6.61777 16.5183 6.61777 15.7124 7.1148 15.2154L15.2144 7.11581C15.7114 6.61878 16.5173 6.61878 17.0143 7.11581C17.5113 7.61285 17.5113 8.41869 17.0143 8.91572L8.91471 17.0153C8.41768 17.5123 7.61183 17.5123 7.1148 17.0153Z" fill="#082854"/>
</svg>
