<svg width="24" height="24" viewBox="0 0 24 24" fill="none" xmlns="http://www.w3.org/2000/svg">
<path fill-rule="evenodd" clip-rule="evenodd" d="M12 22C17.5228 22 22 17.5228 22 12C22 6.47715 17.5228 2 12 2C6.47715 2 2 6.47715 2 12C2 17.5228 6.47715 22 12 22ZM12 24C18.6274 24 24 18.6274 24 12C24 5.37258 18.6274 0 12 0C5.37258 0 0 5.37258 0 12C0 18.6274 5.37258 24 12 24Z" fill="#082854"/>
<path fill-rule="evenodd" clip-rule="evenodd" d="M12.1101 5.04883C12.813 5.04883 13.3828 5.61865 13.3828 6.32156L13.3828 17.7761C13.3828 18.479 12.813 19.0488 12.1101 19.0488C11.4072 19.0488 10.8374 18.479 10.8374 17.7761L10.8374 6.32156C10.8374 5.61865 11.4072 5.04883 12.1101 5.04883Z" fill="#082854"/>
<path fill-rule="evenodd" clip-rule="evenodd" d="M5.04785 12.0725C5.04785 11.3696 5.61767 10.7998 6.32058 10.7998L17.7751 10.7998C18.478 10.7998 19.0479 11.3696 19.0479 12.0725C19.0479 12.7754 18.478 13.3453 17.7751 13.3453L6.32058 13.3453C5.61767 13.3453 5.04785 12.7754 5.04785 12.0725Z" fill="#082854"/>
</svg>
