<svg width="57" height="60" viewBox="0 0 57 60" fill="none" xmlns="http://www.w3.org/2000/svg">
<g clip-path="url(#clip0_1182_410)">
<path d="M27.3874 5.98812C-5.61687 -11.2998 0.983982 15.1036 0.983982 15.1036C0.983982 15.1036 8.9993 20.9186 8.9993 29.0911C8.9993 37.2636 6.48469 39.7782 6.48469 39.7782C6.48469 39.7782 -7.94917 53.3948 7.0379 58.5749C9.28348 59.3505 11.7295 59.3171 13.9531 58.4806C23.6595 54.8596 53.3507 42.7643 56.6323 29.2483C56.6197 29.2483 60.3916 23.2761 27.3874 5.98812ZM38.3479 29.6663C36.9586 35.3933 22.1759 40.3943 22.1759 40.3943C14.7263 38.9484 20.6042 33.3911 20.6042 33.3911C20.6042 33.3911 21.4938 32.5015 21.4938 29.6192C21.4938 26.7368 18.4385 24.9043 18.4385 24.9043C18.4385 24.9043 16.3451 15.3267 28.0035 21.4404C39.6618 27.554 38.3479 29.6663 38.3479 29.6663Z" fill="url(#paint0_linear_1182_410)"/>
<path d="M25.9294 5.256C25.9294 5.256 9.47126 3.47377 21.1013 25.4766C32.7314 47.4794 21.1013 54.3946 21.1013 54.3946C21.1013 54.3946 12.6145 61.3098 6.95665 58.4809C6.95665 58.4809 17.0151 51.88 16.7008 44.9648C16.3864 38.0497 9.78559 27.3626 9.78559 27.3626L3.52735 20.4097C1.83082 18.53 0.71506 16.1991 0.314938 13.6988C-0.854355 6.29014 0.000613105 -7.10959 25.9294 5.256Z" fill="#2FB5FF"/>
</g>
<defs>
<linearGradient id="paint0_linear_1182_410" x1="28.4938" y1="0.118164" x2="28.4938" y2="59.1333" gradientUnits="userSpaceOnUse">
<stop stop-color="#2FB5FF"/>
<stop offset="1" stop-color="#2FB5FF" stop-opacity="0"/>
</linearGradient>
<clipPath id="clip0_1182_410">
<rect width="56.7516" height="59.043" fill="white" transform="translate(0 0.120117)"/>
</clipPath>
</defs>
</svg>
