<?xml version="1.0" encoding="UTF-8"?>
<svg xmlns="http://www.w3.org/2000/svg" xmlns:xlink="http://www.w3.org/1999/xlink" viewBox="0 0 30 30" width="30px" height="30px">
<g id="surface11338339">
<path style=" stroke:none;fill-rule:nonzero;fill:rgb(100%,100%,100%);fill-opacity:1;" d="M 1.648438 15 C 1.648438 7.628906 7.628906 1.648438 15 1.648438 C 22.371094 1.648438 28.351562 7.628906 28.351562 15 C 28.351562 22.371094 22.371094 28.351562 15 28.351562 C 7.628906 28.351562 1.648438 22.371094 1.648438 15 Z M 15 27.75 C 22.042969 27.75 27.75 22.042969 27.75 15 C 27.75 7.957031 22.042969 2.25 15 2.25 C 7.957031 2.25 2.25 7.957031 2.25 15 C 2.25 22.042969 7.957031 27.75 15 27.75 Z M 15 27.75 "/>
<path style=" stroke:none;fill-rule:nonzero;fill:rgb(0%,0%,0%);fill-opacity:1;" d="M 19.5 9.5 L 10.5 9.5 C 9.949219 9.5 9.5 9.949219 9.5 10.5 L 9.5 19.5 C 9.5 20.050781 9.949219 20.5 10.5 20.5 L 19.5 20.5 C 20.050781 20.5 20.5 20.050781 20.5 19.5 L 20.5 10.5 C 20.5 9.949219 20.050781 9.5 19.5 9.5 Z M 12.976562 18.5 L 11.503906 18.5 L 11.503906 13.753906 L 12.976562 13.753906 Z M 12.222656 13.074219 C 11.75 13.074219 11.363281 12.691406 11.363281 12.214844 C 11.363281 11.742188 11.75 11.355469 12.222656 11.355469 C 12.699219 11.355469 13.085938 11.742188 13.085938 12.214844 C 13.085938 12.691406 12.699219 13.074219 12.222656 13.074219 Z M 18.503906 18.5 L 17.027344 18.5 L 17.027344 16.191406 C 17.027344 15.640625 17.019531 14.933594 16.261719 14.933594 C 15.492188 14.933594 15.375 15.53125 15.375 16.152344 L 15.375 18.5 L 13.902344 18.5 L 13.902344 13.753906 L 15.316406 13.753906 L 15.316406 14.402344 L 15.335938 14.402344 C 15.535156 14.03125 16.015625 13.636719 16.734375 13.636719 C 18.226562 13.636719 18.503906 14.617188 18.503906 15.898438 Z M 18.503906 18.5 "/>
</g>
</svg>
