<svg width="16" height="17" viewBox="0 0 16 17" fill="none" xmlns="http://www.w3.org/2000/svg">
<path fill-rule="evenodd" clip-rule="evenodd" d="M3.60037 0.43095C1.86609 0.617611 0.488216 1.85965 0.0808824 3.60353C0.0160466 3.881 0.0149838 3.94443 0.00419863 8.21456C-0.00721172 12.7127 -0.00358541 12.8697 0.123335 13.3727C0.289833 14.0325 0.65487 14.681 1.13432 15.169C1.73101 15.7763 2.4462 16.1615 3.2951 16.3326C3.55898 16.3858 3.85114 16.3894 7.99992 16.3894C12.1487 16.3894 12.4409 16.3858 12.7047 16.3326C14.3372 16.0035 15.5375 14.8338 15.9189 13.2007C15.9837 12.9234 15.9848 12.8585 15.9958 8.63659C16.0076 4.09302 16.0035 3.9334 15.8615 3.40555C15.5126 2.10912 14.5326 1.05714 13.2755 0.629647C12.621 0.407067 12.9257 0.419915 8.14059 0.412913C5.76786 0.409443 3.72475 0.417539 3.60037 0.43095ZM4.41116 3.43547C4.99746 3.55989 5.39873 4.11346 5.32577 4.69733C5.28009 5.06293 5.00565 5.45079 4.67747 5.61359C4.34051 5.78075 3.89194 5.75811 3.56595 5.55754C2.94844 5.17759 2.82615 4.32041 3.31395 3.79122C3.60596 3.47442 3.99707 3.34762 4.41116 3.43547ZM5.33505 10.0512L5.34299 13.3414H4.1862H3.02938V10.0642C3.02938 8.2617 3.03895 6.77742 3.05061 6.76573C3.06227 6.75407 3.57926 6.74819 4.19946 6.75272L5.32708 6.76091L5.33505 10.0512ZM8.5001 7.19857C8.5001 7.44788 8.51113 7.65186 8.5246 7.65186C8.53811 7.65186 8.57225 7.61316 8.60051 7.56589C8.68366 7.42668 8.90187 7.21639 9.08409 7.09982C9.49714 6.8356 9.98685 6.72946 10.6728 6.75547C12.0794 6.80887 12.7149 7.38776 12.9097 8.79289C12.9307 8.9447 12.9509 9.88772 12.9611 11.1922L12.9778 13.3414H12.0066H11.0354L11.0247 11.411C11.0152 9.68149 11.0084 9.46113 10.9592 9.29307C10.8324 8.85998 10.6686 8.63121 10.3859 8.49197C10.2522 8.4262 10.1925 8.41782 9.85996 8.41845C9.53512 8.41904 9.46297 8.42892 9.32183 8.49213C9.12738 8.57925 8.89743 8.81406 8.81249 9.01225C8.64384 9.40568 8.6463 9.37257 8.63333 11.4267L8.62123 13.3414H7.66973H6.71821V10.0433V6.74528H7.60915H8.5001V7.19857Z" fill="#5F646A"/>
</svg>
