<svg width="22" height="21" viewBox="0 0 22 21" fill="none" xmlns="http://www.w3.org/2000/svg">
<path d="M21.5806 8.34109L16.9656 12.8376L18.0545 19.1934C18.099 19.4749 17.9879 19.749 17.7582 19.9194C17.6323 20.0157 17.4767 20.0601 17.3212 20.0601C17.2027 20.0601 17.0841 20.0305 16.973 19.9786L11.2691 16.9785L5.56513 19.9786C5.31327 20.112 5.01696 20.0897 4.78732 19.9194C4.55768 19.7564 4.44657 19.4749 4.49101 19.1934L5.57995 12.8376L0.972347 8.34109C0.772338 8.14108 0.698261 7.85218 0.787154 7.5855C0.876046 7.31883 1.10569 7.11882 1.38718 7.08178L7.76522 6.15581L10.6172 0.377794C10.8691 -0.125931 11.6987 -0.125931 11.9432 0.377794L14.7951 6.15581L21.1732 7.08178C21.4547 7.12622 21.6843 7.31883 21.7732 7.5855C21.8621 7.85218 21.788 8.14108 21.5806 8.34109Z" fill="#FAAF38"/>
</svg>
