<svg width="22" height="21" viewBox="0 0 22 21" fill="none" xmlns="http://www.w3.org/2000/svg">
<path opacity="0.9" d="M21.522 8.34109L16.907 12.8376L17.996 19.1934C18.0404 19.4749 17.9293 19.749 17.6996 19.9194C17.5737 20.0157 17.4182 20.0601 17.2626 20.0601C17.1441 20.0601 17.0255 20.0305 16.9144 19.9786L11.2105 16.9785L5.50654 19.9786C5.25468 20.112 4.95837 20.0897 4.72873 19.9194C4.49909 19.7564 4.38797 19.4749 4.43242 19.1934L5.52135 12.8376L0.913753 8.34109C0.713745 8.14108 0.639667 7.85218 0.72856 7.5855C0.817453 7.31883 1.04709 7.11882 1.32859 7.08178L7.70663 6.15581L10.5586 0.377794C10.8105 -0.125931 11.6401 -0.125931 11.8846 0.377794L14.7366 6.15581L21.1146 7.08178C21.3961 7.12622 21.6257 7.31883 21.7146 7.5855C21.8035 7.85218 21.7294 8.14108 21.522 8.34109Z" fill="#70758F" fill-opacity="0.3"/>
</svg>
