<svg width="1440" height="129" viewBox="0 0 1440 129" fill="none" xmlns="http://www.w3.org/2000/svg">
<path d="M5.39085e-06 30.8321L26.72 31.192C53.28 31.672 106.72 32.392 160 25.432C213.28 18.472 266.72 3.59199 320 0.591985C373.28 -2.40802 426.72 6.47198 480 16.432C533.28 26.392 586.72 37.672 640 38.272C693.28 38.8719 746.72 28.7919 800 23.2719C853.28 17.6319 906.72 16.4319 960 19.1919C1013.28 22.0719 1066.72 28.7919 1120 33.8319C1173.28 38.8718 1226.72 41.9918 1280 37.6718C1333.28 33.2318 1386.72 21.2318 1413.28 15.2318L1440 9.2318L1440 128.032L1413.28 128.032C1386.72 128.032 1333.28 128.032 1280 128.032C1226.72 128.032 1173.28 128.032 1120 128.032C1066.72 128.032 1013.28 128.032 960 128.032C906.72 128.032 853.28 128.032 800 128.032C746.72 128.032 693.28 128.032 640 128.032C586.72 128.032 533.28 128.032 480 128.032C426.72 128.032 373.28 128.032 320 128.032C266.72 128.032 213.28 128.032 160 128.032C106.72 128.032 53.28 128.032 26.72 128.032L2.23858e-05 128.032L5.39085e-06 30.8321Z" fill="white"/>
</svg>
